<?xml version="1.0"?>
<svg xmlns="http://www.w3.org/2000/svg" id="line" viewBox="0 0 64 64" width="512" height="512"><path d="M54,62H22a1,1,0,0,1-.92-.61l-8-19A1,1,0,0,1,14,41H46a1,1,0,0,1,.92.61l8,19A1,1,0,0,1,54,62Zm8-34H50a1,1,0,0,0-1,.76L48.22,32H29a1,1,0,0,0-1,.76L26.47,39H46a3,3,0,0,1,2.77,1.84l7.09,16.85L63,29.24A1,1,0,0,0,62,28Z" style="fill:#c4a2fc"/><path d="M41,1H17a1.05,1.05,0,0,0-.71.29l-8,8A1.05,1.05,0,0,0,8,10V48a3,3,0,0,0,3,3H41a3,3,0,0,0,3-3V4A3,3,0,0,0,41,1ZM16,4.41V8a1,1,0,0,1-1,1H11.41ZM42,48a1,1,0,0,1-1,1H11a1,1,0,0,1-1-1V11h5a3,3,0,0,0,3-3V3H41a1,1,0,0,1,1,1ZM36,25H16a1,1,0,0,1,0-2H36A1,1,0,0,1,36,25Zm0,6H16a1,1,0,0,1,0-2H36A1,1,0,0,1,36,31Zm0,12H16a1,1,0,0,1,0-2H36A1,1,0,0,1,36,43Zm0-6H16a1,1,0,0,1,0-2H36A1,1,0,0,1,36,37Zm0-18H16a1,1,0,0,1,0-2H36A1,1,0,0,1,36,19Z" style="fill:#151a6a"/></svg>
