<?xml version="1.0"?>
<svg xmlns="http://www.w3.org/2000/svg" id="line" width="512" height="512" viewBox="0 0 64 64"><circle cx="38.5" cy="29.5" r="2.5" style="fill:#c4a2fc"/><path d="M42,21A21,21,0,1,0,63,42,21.024,21.024,0,0,0,42,21ZM29,48a2,2,0,1,1,2-2A2,2,0,0,1,29,48Zm9.5-23A4.5,4.5,0,1,1,34,29.5,4.505,4.505,0,0,1,38.5,25ZM51.537,45.18a5.871,5.871,0,0,1-.371,2.043l1.077.622,2.642-.171a.985.985,0,0,1,1.062.934,1,1,0,0,1-.933,1.062l-1.448.094.643,1.3a1,1,0,1,1-1.793.887l-1.173-2.374-1.075-.62A5.913,5.913,0,0,1,46.627,51v1.243l1.469,2.2a1,1,0,0,1-1.664,1.11l-.8-1.207-.8,1.207a1,1,0,0,1-1.664-1.11l1.469-2.2V51a5.912,5.912,0,0,1-3.542-2.043l-1.075.621-1.173,2.374a1,1,0,0,1-1.793-.887l.643-1.3-1.448-.094a1,1,0,0,1-.933-1.062.984.984,0,0,1,1.062-.934l2.642.171,1.078-.623a5.805,5.805,0,0,1,0-4.084l-1.078-.623-2.642.171a1,1,0,0,1-.129-2l1.448-.093-.643-1.3a1,1,0,1,1,1.793-.887l1.173,2.374,1.076.621a5.906,5.906,0,0,1,3.541-2.043V38.118l-1.469-2.2a1,1,0,0,1,1.664-1.11l.8,1.207.8-1.207a1,1,0,0,1,1.664,1.11l-1.469,2.2v1.243A5.913,5.913,0,0,1,50.168,41.4l1.075-.62,1.173-2.374a1,1,0,0,1,1.793.887l-.643,1.3,1.448.093a1,1,0,0,1-.129,2l-2.642-.171-1.077.622A5.871,5.871,0,0,1,51.537,45.18Z" style="fill:#c4a2fc"/><path d="M45.627,41.27a3.91,3.91,0,1,0,3.91,3.91A3.914,3.914,0,0,0,45.627,41.27Z" style="fill:#c4a2fc"/><path d="M38.453,13.512a6.488,6.488,0,0,0-4.121-.423L29.293,8.05A1,1,0,0,1,29,7.343V2a1,1,0,0,0-2,0V7.343a2.976,2.976,0,0,0,.879,2.121l4.439,4.44a6.517,6.517,0,0,0-1.551,1.278l-2.646-2.646a3,3,0,0,0-4.242,0l-2.647,2.646a6.5,6.5,0,0,0-1.55-1.278l4.439-4.44A2.98,2.98,0,0,0,25,7.343V2a1,1,0,0,0-2,0V7.343a1,1,0,0,1-.293.707l-5.039,5.039a6.486,6.486,0,0,0-4.121.423C4.286,17.739,1,29.884,1,39a9.01,9.01,0,0,0,9,9h4a9.01,9.01,0,0,0,9-9V19.767a6.831,6.831,0,0,0-.646-2.878l2.939-2.939a1,1,0,0,1,1.414,0l2.939,2.939A6.831,6.831,0,0,0,29,19.767V39a9.01,9.01,0,0,0,9,9h4a9.01,9.01,0,0,0,9-9C51,29.884,47.714,17.739,38.453,13.512Zm-24.076,1.82A4.762,4.762,0,0,1,21,19.767V31.9c-9.553-.981-13.478-5.446-14.883-7.774C7.924,20.3,10.6,17.056,14.377,15.332ZM10,46a7.008,7.008,0,0,1-7-7,39.082,39.082,0,0,1,.685-7.192A21.381,21.381,0,0,0,17.554,45.02,6.95,6.95,0,0,1,14,46Zm9.376-2.524C6.805,40.091,4.886,29.407,4.673,27.851q.243-.774.524-1.532c2.09,2.764,6.642,6.7,15.8,7.585V39A6.965,6.965,0,0,1,19.376,43.476ZM37.623,15.332c5.17,2.359,8.281,7.556,9.913,13.19-.64,1.532-4.4,9.06-16.536,9.457V19.767A4.762,4.762,0,0,1,37.623,15.332ZM42,46H38a7.006,7.006,0,0,1-6.924-6.023c10.239-.336,15.108-5.4,17.16-8.562A39.113,39.113,0,0,1,49,39,7.008,7.008,0,0,1,42,46Z" style="fill:#151a6a"/></svg>
