<?xml version="1.0"?>
<svg xmlns="http://www.w3.org/2000/svg" id="Line" width="512" height="512" viewBox="0 0 64 64"><path d="M41.022,25.7l3.064,8.115H37.932Zm10.11,23.646A5,5,0,0,0,56,55.5a1,1,0,0,1,0,2,24.965,24.965,0,0,1-16.3-6.055C28.065,50.86,19,42.6,19,32.5c0-10.477,9.869-19,22-19s22,8.523,22,19C63,39.645,58.466,46.061,51.132,49.348Zm-3.275-11.2L42.265,23.331a1.34,1.34,0,0,0-2.489.024L34.144,38.144a1,1,0,1,0,1.869.712l1.157-3.039h7.67l1.146,3.036a1,1,0,1,0,1.871-.706Z" style="fill:#c4a2fc"/><path d="M26,6.5c-13.785,0-25,8.523-25,19,0,8.484,7.356,15.9,17.99,18.245a4.953,4.953,0,0,1-1.3,3.125A5,5,0,0,1,14,48.5a1,1,0,0,0,0,2,24.929,24.929,0,0,0,16.613-6.328C42.445,42.5,51,34.686,51,25.5,51,15.023,39.785,6.5,26,6.5Zm4.042,35.732a.992.992,0,0,0-.543.253,22.957,22.957,0,0,1-10.006,5.351,6.941,6.941,0,0,0,1.471-5,1,1,0,0,0-.8-.889C10.056,39.983,3,33.221,3,25.5c0-9.374,10.318-17,23-17s23,7.626,23,17C49,33.75,41.027,40.787,30.042,42.232ZM33.6,31.911a10.086,10.086,0,1,0-1.4,1.43l1.989,1.988A1,1,0,0,0,35.6,33.915ZM25.73,33.7a8.124,8.124,0,1,1,6.44-3.212L29.783,28.1a1,1,0,0,0-1.414,1.414l2.408,2.408A8.048,8.048,0,0,1,25.73,33.7Z" style="fill:#151a6a"/></svg>
