<?xml version="1.0"?>
<svg xmlns="http://www.w3.org/2000/svg" id="line" width="512" height="512" viewBox="0 0 64 64"><path d="M62.465,57.012,43.591,24.05a4,4,0,0,0-6.943,0L17.774,57.012A4,4,0,0,0,21.245,63H58.993A4,4,0,0,0,62.465,57.012ZM40.168,58a2.5,2.5,0,1,1,2.5-2.5A2.5,2.5,0,0,1,40.168,58Zm2.118-11a2.121,2.121,0,0,1-4.235,0l-.707-12.008a2.829,2.829,0,1,1,5.648,0Z" style="fill:#c4a2fc"/><path d="M35.357,36A.357.357,0,0,1,35,35.643V22A15.02,15.02,0,0,0,23.216,7.356a4,4,0,1,0-6.432,0A15.019,15.019,0,0,0,5,22V35.643A.357.357,0,0,1,4.642,36a3.612,3.612,0,0,0-3.625,3.143A3.5,3.5,0,0,0,4.5,43h9.59a5.992,5.992,0,0,0,11.819,0H35.5a3.5,3.5,0,0,0,3.482-3.858A3.611,3.611,0,0,0,35.357,36ZM18,5a2,2,0,1,1,2,2A2,2,0,0,1,18,5Zm2,41a4,4,0,0,1-3.858-3h7.716A4,4,0,0,1,20,46Zm16.612-5.494A1.48,1.48,0,0,1,35.5,41H4.5a1.5,1.5,0,0,1-1.492-1.658A1.6,1.6,0,0,1,4.642,38,2.361,2.361,0,0,0,7,35.643V22a13,13,0,0,1,26,0V35.643A2.36,2.36,0,0,0,35.357,38a1.6,1.6,0,0,1,1.635,1.341A1.494,1.494,0,0,1,36.612,40.506Z" style="fill:#151a6a"/><path d="M30,36H10a1,1,0,0,0,0,2H30a1,1,0,0,0,0-2Z" style="fill:#151a6a"/></svg>
